<?xml version="1.0" encoding="UTF-8" standalone="no"?>
<svg
   viewBox="0 0 512 512"
   version="1.1"
   id="svg195"
   sodipodi:docname="blog-solid.svg"
   inkscape:version="1.2 (dc2aedaf03, 2022-05-15)"
   xmlns:inkscape="http://www.inkscape.org/namespaces/inkscape"
   xmlns:sodipodi="http://sodipodi.sourceforge.net/DTD/sodipodi-0.dtd"
   xmlns="http://www.w3.org/2000/svg"
   xmlns:svg="http://www.w3.org/2000/svg">
  <defs
     id="defs199" />
  <sodipodi:namedview
     id="namedview197"
     pagecolor="#ffffff"
     bordercolor="#000000"
     borderopacity="0.25"
     inkscape:showpageshadow="2"
     inkscape:pageopacity="0.0"
     inkscape:pagecheckerboard="0"
     inkscape:deskcolor="#d1d1d1"
     showgrid="false"
     inkscape:zoom="1.6191406"
     inkscape:cx="256.30881"
     inkscape:cy="256.30881"
     inkscape:window-width="1920"
     inkscape:window-height="1009"
     inkscape:window-x="-8"
     inkscape:window-y="-8"
     inkscape:window-maximized="1"
     inkscape:current-layer="svg195" />
  <!--! Font Awesome Pro 6.2.0 by @fontawesome - https://fontawesome.com License - https://fontawesome.com/license (Commercial License) Copyright 2022 Fonticons, Inc. -->
  <path
     d="M192 32c0 17.7 14.3 32 32 32c123.7 0 224 100.3 224 224c0 17.7 14.3 32 32 32s32-14.3 32-32C512 128.9 383.1 0 224 0c-17.7 0-32 14.3-32 32zm0 96c0 17.7 14.3 32 32 32c70.7 0 128 57.3 128 128c0 17.7 14.3 32 32 32s32-14.3 32-32c0-106-86-192-192-192c-17.7 0-32 14.3-32 32zM96 144c0-26.5-21.5-48-48-48S0 117.5 0 144V368c0 79.5 64.5 144 144 144s144-64.5 144-144s-64.5-144-144-144H128v96h16c26.5 0 48 21.5 48 48s-21.5 48-48 48s-48-21.5-48-48V144z"
     id="path193"
     style="fill:#ffffff" />
</svg>
